# xmcd
#
# Track frame offsets:
# 150
# 25860
# 51756
# 74457
# 87453
# 119730
# 145864
# 182973
# 209962
# 248181
#
# Disc length: 3813 seconds
#
#
# Revision: 0
# Processed by: cddbd v1.5.2PL0 Copyright (c) Steve Scherf et al.
# Submitted via: FreeRIP 2.96 
#
DISCID=a10ee30a
DTITLE=Andreas Eschbach - Ein König für Deutschland CD1v6
DYEAR=2009
DGENRE=Speech
TTITLE0=01 Ein König für Deutschland
TTITLE1=02 Ein König für Deutschland
TTITLE2=03 Ein König für Deutschland
TTITLE3=04 Ein König für Deutschland
TTITLE4=05 Ein König für Deutschland
TTITLE5=06 Ein König für Deutschland
TTITLE6=07 Ein König für Deutschland
TTITLE7=08 Ein König für Deutschland
TTITLE8=09 Ein König für Deutschland
TTITLE9=10 Ein König für Deutschland
EXTD=gelesen von Ulrich Noethen
EXTT0=
EXTT1=
EXTT2=
EXTT3=
EXTT4=
EXTT5=
EXTT6=
EXTT7=
EXTT8=
EXTT9=
PLAYORDER=
